# xmcd CD database file
#
# Track frame offsets:
#	150
#	13122
#	24075
#	33887
#	45590
#	57767
#	69720
#	82337
#	94557
#	105447
#
# Disc length: 1584 seconds
#
# Revision: 2
# Processed by: cddbd v1.5.2PL0 Copyright (c) Steve Scherf et al.
# Submitted via: CDex 1.51
#
DISCID=71062e0a
DTITLE=Patsy Cline - The Last Sessions
DYEAR=1900
DGENRE=
TTITLE0=Someday (You'll Want Me To Want You)
TTITLE1=Love Letters In The Sand
TTITLE2=Blue Moon Of Kentucky
TTITLE3=Sweet Dreams (Of You)
TTITLE4=Always
TTITLE5=Does Your Heart Beat For Me
TTITLE6=Bill Bailey Won't You Please Come Home
TTITLE7=He Called Me Baby
TTITLE8=Crazy Arms
TTITLE9=You Took Him Off My Hands
EXTD=
EXTT0=
EXTT1=
EXTT2=
EXTT3=
EXTT4=
EXTT5=
EXTT6=
EXTT7=
EXTT8=
EXTT9=
PLAYORDER=
